<?xml version="1.0" encoding="UTF-8" standalone="no"?>
<!DOCTYPE svg PUBLIC "-//W3C//DTD SVG 1.1//EN" "http://www.w3.org/Graphics/SVG/1.1/DTD/svg11.dtd">
<svg version="1.1" xmlns="http://www.w3.org/2000/svg" xmlns:xlink="http://www.w3.org/1999/xlink" preserveAspectRatio="xMidYMid meet" viewBox="0 0 322.61 357" width="322.61" height="357"><defs><path d="M169.52 0.5L174.9 1.11L180.21 1.95L185.45 3.02L190.62 4.32L195.71 5.83L200.73 7.56L205.66 9.49L210.49 11.62L215.24 13.94L219.88 16.46L224.43 19.16L228.86 22.03L233.19 25.09L237.38 28.3L241.47 31.68L245.43 35.2L249.26 38.88L252.96 42.7L256.53 46.66L259.95 50.76L263.22 54.98L266.34 59.32L269.3 63.78L272.1 68.33L274.75 73L277.22 77.77L279.53 82.63L281.64 87.57L283.59 92.6L285.34 97.71L286.91 102.88L288.28 108.12L289.45 113.41L290.42 118.76L291.18 124.16L291.73 129.6L292.06 135.06L292.17 140.57L292.16 142.32L292.13 144.08L292.07 145.84L291.99 147.62L291.89 149.39L291.77 151.16L291.62 152.94L291.47 154.72L291.28 156.51L291.07 158.29L290.84 160.08L290.59 161.87L290.31 163.66L290.02 165.45L289.7 167.25L289.37 169.03L289.01 170.83L288.63 172.63L288.24 174.42L287.82 176.21L287.39 178L286.94 179.79L286.46 181.57L285.96 183.36L285.45 185.14L284.91 186.93L284.36 188.7L283.78 190.48L283.2 192.24L282.59 194.02L281.96 195.78L281.31 197.54L280.64 199.29L279.96 201.04L279.27 202.79L278.54 204.52L277.8 206.26L277.05 207.98L276.27 209.7L275.49 211.42L272.88 216.8L270.1 222.19L267.16 227.56L264.07 232.94L260.84 238.29L257.5 243.6L254.04 248.88L250.48 254.13L246.84 259.31L243.13 264.45L239.35 269.53L235.53 274.52L231.66 279.45L227.78 284.29L223.88 289.04L219.99 293.67L216.1 298.22L212.25 302.65L208.43 306.95L204.66 311.13L200.96 315.18L197.33 319.08L193.79 322.84L190.35 326.43L187.01 329.87L183.8 333.13L180.74 336.22L177.82 339.13L175.07 341.84L172.49 344.35L170.1 346.66L167.9 348.75L165.92 350.63L164.15 352.28L162.64 353.69L161.36 354.87L160.35 355.79L159.61 356.46L159.16 356.87L159.01 357L152.83 351.35L146.86 345.73L141.05 340.14L135.45 334.59L130.01 329.08L124.76 323.63L119.69 318.23L114.8 312.88L110.08 307.62L105.54 302.42L101.17 297.3L96.97 292.28L92.94 287.34L89.08 282.51L85.39 277.77L81.86 273.16L78.48 268.66L75.28 264.28L72.23 260.02L69.35 255.91L66.61 251.94L64.04 248.11L61.62 244.44L59.34 240.93L57.23 237.58L55.25 234.41L53.43 231.4L51.74 228.59L50.21 225.98L48.81 223.54L47.56 221.32L46.45 219.3L45.47 217.51L44.62 215.92L43.91 214.57L43.34 213.45L42.9 212.56L42.58 211.92L42.39 211.53L42.33 211.41L41.55 209.69L40.78 207.97L40.04 206.25L39.31 204.51L38.6 202.78L37.91 201.03L37.23 199.29L36.57 197.53L35.93 195.77L35.32 194.01L34.72 192.24L34.13 190.47L33.57 188.69L33.02 186.92L32.49 185.13L31.98 183.36L31.5 181.57L31.03 179.78L30.58 177.99L30.14 176.21L29.73 174.41L29.34 172.62L28.97 170.82L28.61 169.03L28.28 167.24L27.97 165.44L27.68 163.66L27.42 161.86L27.17 160.08L26.94 158.29L26.73 156.51L26.55 154.72L26.38 152.94L26.24 151.16L26.12 149.39L26.02 147.61L25.94 145.84L25.88 144.08L25.85 142.32L25.84 140.57L25.95 135.06L26.28 129.6L26.82 124.16L27.58 118.76L28.52 113.41L29.69 108.12L31.04 102.88L32.58 97.71L34.32 92.6L36.24 87.57L38.34 82.63L40.61 77.77L43.07 73L45.68 68.33L48.45 63.78L51.38 59.32L54.48 54.98L57.72 50.76L61.11 46.66L64.64 42.7L68.31 38.88L72.11 35.2L76.04 31.68L80.09 28.3L84.27 25.09L88.57 22.03L92.97 19.16L97.48 16.46L102.1 13.94L106.82 11.62L111.64 9.49L116.55 7.56L121.54 5.83L126.62 4.32L131.78 3.02L137 1.95L142.31 1.11L147.68 0.5L153.11 0.13L158.6 0L164.08 0.13L169.52 0.5ZM150.71 39.23L146.65 39.64L142.63 40.21L138.67 40.93L134.77 41.82L130.92 42.85L127.13 44.03L123.42 45.34L119.77 46.81L116.19 48.41L112.69 50.13L109.25 52L105.91 53.98L102.65 56.1L99.48 58.32L96.41 60.67L93.43 63.14L90.53 65.71L87.75 68.39L85.07 71.18L82.49 74.06L80.03 77.05L77.69 80.12L75.45 83.3L73.34 86.56L71.35 89.9L69.49 93.32L67.76 96.83L66.17 100.4L64.7 104.05L63.38 107.77L62.21 111.56L61.18 115.4L60.29 119.31L59.56 123.27L58.99 127.28L58.59 131.35L58.34 135.46L58.25 139.61L58.34 143.76L58.59 147.87L58.99 151.94L59.56 155.95L60.29 159.91L61.18 163.82L62.21 167.66L63.38 171.45L64.7 175.17L66.17 178.82L67.76 182.39L69.49 185.9L71.35 189.32L73.34 192.66L75.45 195.93L77.69 199.1L80.03 202.17L82.49 205.16L85.07 208.04L87.75 210.83L90.53 213.51L93.43 216.08L96.41 218.55L99.48 220.9L102.65 223.12L105.91 225.24L109.25 227.22L112.69 229.09L116.19 230.82L119.77 232.41L123.42 233.88L127.13 235.19L130.92 236.37L134.77 237.4L138.67 238.29L142.63 239.01L146.65 239.58L150.71 239.99L154.82 240.24L158.97 240.33L163.12 240.24L167.23 239.99L171.29 239.58L175.3 239.01L179.26 238.29L183.17 237.4L187.01 236.37L190.8 235.19L194.52 233.88L198.18 232.41L201.75 230.82L205.26 229.09L208.68 227.22L212.02 225.24L215.28 223.12L218.45 220.9L221.54 218.55L224.52 216.08L227.4 213.51L230.19 210.83L232.87 208.04L235.44 205.16L237.9 202.17L240.26 199.1L242.49 195.93L244.6 192.66L246.59 189.32L248.45 185.9L250.18 182.39L251.78 178.82L253.23 175.17L254.55 171.45L255.73 167.66L256.76 163.82L257.64 159.91L258.37 155.95L258.94 151.94L259.36 147.87L259.61 143.76L259.69 139.61L259.61 135.46L259.36 131.35L258.94 127.28L258.37 123.27L257.64 119.31L256.76 115.4L255.73 111.56L254.55 107.77L253.23 104.05L251.78 100.4L250.18 96.83L248.45 93.32L246.59 89.9L244.6 86.56L242.49 83.3L240.26 80.12L237.9 77.05L235.44 74.06L232.87 71.18L230.19 68.39L227.4 65.71L224.52 63.14L221.54 60.67L218.45 58.32L215.28 56.1L212.02 53.98L208.68 52L205.26 50.13L201.75 48.41L198.18 46.81L194.52 45.34L190.8 44.03L187.01 42.85L183.17 41.82L179.26 40.93L175.3 40.21L171.29 39.64L167.23 39.23L163.12 38.98L158.97 38.89L154.82 38.98L150.71 39.23Z" id="a13gh4Qyot"></path><path d="M169.52 0.5L174.9 1.11L180.21 1.95L185.45 3.02L190.62 4.32L195.71 5.83L200.73 7.56L205.66 9.49L210.49 11.62L215.24 13.94L219.88 16.46L224.43 19.16L228.86 22.03L233.19 25.09L237.38 28.3L241.47 31.68L245.43 35.2L249.26 38.88L252.96 42.7L256.53 46.66L259.95 50.76L263.22 54.98L266.34 59.32L269.3 63.78L272.1 68.33L274.75 73L277.22 77.77L279.53 82.63L281.64 87.57L283.59 92.6L285.34 97.71L286.91 102.88L288.28 108.12L289.45 113.41L290.42 118.76L291.18 124.16L291.73 129.6L292.06 135.06L292.17 140.57L292.16 142.32L292.13 144.08L292.07 145.84L291.99 147.62L291.89 149.39L291.77 151.16L291.62 152.94L291.47 154.72L291.28 156.51L291.07 158.29L290.84 160.08L290.59 161.87L290.31 163.66L290.02 165.45L289.7 167.25L289.37 169.03L289.01 170.83L288.63 172.63L288.24 174.42L287.82 176.21L287.39 178L286.94 179.79L286.46 181.57L285.96 183.36L285.45 185.14L284.91 186.93L284.36 188.7L283.78 190.48L283.2 192.24L282.59 194.02L281.96 195.78L281.31 197.54L280.64 199.29L279.96 201.04L279.27 202.79L278.54 204.52L277.8 206.26L277.05 207.98L276.27 209.7L275.49 211.42L272.88 216.8L270.1 222.19L267.16 227.56L264.07 232.94L260.84 238.29L257.5 243.6L254.04 248.88L250.48 254.13L246.84 259.31L243.13 264.45L239.35 269.53L235.53 274.52L231.66 279.45L227.78 284.29L223.88 289.04L219.99 293.67L216.1 298.22L212.25 302.65L208.43 306.95L204.66 311.13L200.96 315.18L197.33 319.08L193.79 322.84L190.35 326.43L187.01 329.87L183.8 333.13L180.74 336.22L177.82 339.13L175.07 341.84L172.49 344.35L170.1 346.66L167.9 348.75L165.92 350.63L164.15 352.28L162.64 353.69L161.36 354.87L160.35 355.79L159.61 356.46L159.16 356.87L159.01 357L152.83 351.35L146.86 345.73L141.05 340.14L135.45 334.59L130.01 329.08L124.76 323.63L119.69 318.23L114.8 312.88L110.08 307.62L105.54 302.42L101.17 297.3L96.97 292.28L92.94 287.34L89.08 282.51L85.39 277.77L81.86 273.16L78.48 268.66L75.28 264.28L72.23 260.02L69.35 255.91L66.61 251.94L64.04 248.11L61.62 244.44L59.34 240.93L57.23 237.58L55.25 234.41L53.43 231.4L51.74 228.59L50.21 225.98L48.81 223.54L47.56 221.32L46.45 219.3L45.47 217.51L44.62 215.92L43.91 214.57L43.34 213.45L42.9 212.56L42.58 211.92L42.39 211.53L42.33 211.41L41.55 209.69L40.78 207.97L40.04 206.25L39.31 204.51L38.6 202.78L37.91 201.03L37.23 199.29L36.57 197.53L35.93 195.77L35.32 194.01L34.72 192.24L34.13 190.47L33.57 188.69L33.02 186.92L32.49 185.13L31.98 183.36L31.5 181.57L31.03 179.78L30.58 177.99L30.14 176.21L29.73 174.41L29.34 172.62L28.97 170.82L28.61 169.03L28.28 167.24L27.97 165.44L27.68 163.66L27.42 161.86L27.17 160.08L26.94 158.29L26.73 156.51L26.55 154.72L26.38 152.94L26.24 151.16L26.12 149.39L26.02 147.61L25.94 145.84L25.88 144.08L25.85 142.32L25.84 140.57L25.95 135.06L26.28 129.6L26.82 124.16L27.58 118.76L28.52 113.41L29.69 108.12L31.04 102.88L32.58 97.71L34.32 92.6L36.24 87.57L38.34 82.63L40.61 77.77L43.07 73L45.68 68.33L48.45 63.78L51.38 59.32L54.48 54.98L57.72 50.76L61.11 46.66L64.64 42.7L68.31 38.88L72.11 35.2L76.04 31.68L80.09 28.3L84.27 25.09L88.57 22.03L92.97 19.16L97.48 16.46L102.1 13.94L106.82 11.62L111.64 9.49L116.55 7.56L121.54 5.83L126.62 4.32L131.78 3.02L137 1.95L142.31 1.11L147.68 0.5L153.11 0.13L158.6 0L164.08 0.13L169.52 0.5ZM150.71 39.23L146.65 39.64L142.63 40.21L138.67 40.93L134.77 41.82L130.92 42.85L127.13 44.03L123.42 45.34L119.77 46.81L116.19 48.41L112.69 50.13L109.25 52L105.91 53.98L102.65 56.1L99.48 58.32L96.41 60.67L93.43 63.14L90.53 65.71L87.75 68.39L85.07 71.18L82.49 74.06L80.03 77.05L77.69 80.12L75.45 83.3L73.34 86.56L71.35 89.9L69.49 93.32L67.76 96.83L66.17 100.4L64.7 104.05L63.38 107.77L62.21 111.56L61.18 115.4L60.29 119.31L59.56 123.27L58.99 127.28L58.59 131.35L58.34 135.46L58.25 139.61L58.34 143.76L58.59 147.87L58.99 151.94L59.56 155.95L60.29 159.91L61.18 163.82L62.21 167.66L63.38 171.45L64.7 175.17L66.17 178.82L67.76 182.39L69.49 185.9L71.35 189.32L73.34 192.66L75.45 195.93L77.69 199.1L80.03 202.17L82.49 205.16L85.07 208.04L87.75 210.83L90.53 213.51L93.43 216.08L96.41 218.55L99.48 220.9L102.65 223.12L105.91 225.24L109.25 227.22L112.69 229.09L116.19 230.82L119.77 232.41L123.42 233.88L127.13 235.19L130.92 236.37L134.77 237.4L138.67 238.29L142.63 239.01L146.65 239.58L150.71 239.99L154.82 240.24L158.97 240.33L163.12 240.24L167.23 239.99L171.29 239.58L175.3 239.01L179.26 238.29L183.17 237.4L187.01 236.37L190.8 235.19L194.52 233.88L198.18 232.41L201.75 230.82L205.26 229.09L208.68 227.22L212.02 225.24L215.28 223.12L218.45 220.9L221.54 218.55L224.52 216.08L227.4 213.51L230.19 210.83L232.87 208.04L235.44 205.16L237.9 202.17L240.26 199.1L242.49 195.93L244.6 192.66L246.59 189.32L248.45 185.9L250.18 182.39L251.78 178.82L253.23 175.17L254.55 171.45L255.73 167.66L256.76 163.82L257.64 159.91L258.37 155.95L258.94 151.94L259.36 147.87L259.61 143.76L259.69 139.61L259.61 135.46L259.36 131.35L258.94 127.28L258.37 123.27L257.64 119.31L256.76 115.4L255.73 111.56L254.55 107.77L253.23 104.05L251.78 100.4L250.18 96.83L248.45 93.32L246.59 89.9L244.6 86.56L242.49 83.3L240.26 80.12L237.9 77.05L235.44 74.06L232.87 71.18L230.19 68.39L227.4 65.71L224.52 63.14L221.54 60.67L218.45 58.32L215.28 56.1L212.02 53.98L208.68 52L205.26 50.13L201.75 48.41L198.18 46.81L194.52 45.34L190.8 44.03L187.01 42.85L183.17 41.82L179.26 40.93L175.3 40.21L171.29 39.64L167.23 39.23L163.12 38.98L158.97 38.89L154.82 38.98L150.71 39.23Z" id="gDR1TytP"></path><path d="M29.08 211.74C44.6 208.76 55.58 198.85 65.67 187.42C72.57 179.59 79.81 172.01 87.47 164.92C95.56 157.44 104.83 151.52 115.52 148.26C130.57 143.68 143.38 147.29 153.6 159.33C156.36 162.58 158.71 166.2 161.64 170.21C162.69 168.58 163.53 167.25 164.38 165.92C177.09 146.17 194.89 141.16 215.93 151.69C232.29 159.89 245.1 172.37 256.53 186.38C263.86 195.37 272.07 203.39 282.81 208.01C288.05 210.27 293.84 211.77 299.51 212.39C308.31 213.36 312.86 209.64 313.61 200.85C314.18 194.14 313.46 187.3 313.18 180.52C313.07 178.1 312.53 175.69 312.08 172.48C326.96 193.26 328.94 220.44 301.26 228.78C286.48 233.24 271.44 233.53 256.36 232.23C234.61 230.36 213.33 226 192.89 218.11C178.64 212.6 172.85 208.51 161.59 196.73C142.1 218.83 114.99 223.95 88.14 229.3C69.83 232.95 51.26 234.45 32.68 231.3C27.18 230.38 21.61 228.83 16.51 226.58C4.04 221.05 -0.86 212.3 0.39 198.74C1.24 189.37 4.75 180.92 10.43 173.34C9.83 180.44 8.79 187.54 8.73 194.63C8.61 209.93 14.21 214.6 29.08 211.74Z" id="b1L3T5xZ5W"></path><path d="M29.08 211.74C44.6 208.76 55.58 198.85 65.67 187.42C72.57 179.59 79.81 172.01 87.47 164.92C95.56 157.44 104.83 151.52 115.52 148.26C130.57 143.68 143.38 147.29 153.6 159.33C156.36 162.58 158.71 166.2 161.64 170.21C162.69 168.58 163.53 167.25 164.38 165.92C177.09 146.17 194.89 141.16 215.93 151.69C232.29 159.89 245.1 172.37 256.53 186.38C263.86 195.37 272.07 203.39 282.81 208.01C288.05 210.27 293.84 211.77 299.51 212.39C308.31 213.36 312.86 209.64 313.61 200.85C314.18 194.14 313.46 187.3 313.18 180.52C313.07 178.1 312.53 175.69 312.08 172.48C326.96 193.26 328.94 220.44 301.26 228.78C286.48 233.24 271.44 233.53 256.36 232.23C234.61 230.36 213.33 226 192.89 218.11C178.64 212.6 172.85 208.51 161.59 196.73C142.1 218.83 114.99 223.95 88.14 229.3C69.83 232.95 51.26 234.45 32.68 231.3C27.18 230.38 21.61 228.83 16.51 226.58C4.04 221.05 -0.86 212.3 0.39 198.74C1.24 189.37 4.75 180.92 10.43 173.34C9.83 180.44 8.79 187.54 8.73 194.63C8.61 209.93 14.21 214.6 29.08 211.74Z" id="b4iHOSaMek"></path></defs><g><g><g><use xlink:href="#a13gh4Qyot" opacity="1" fill="#34984d" fill-opacity="1"></use><g><use xlink:href="#a13gh4Qyot" opacity="1" fill-opacity="0" stroke="#000000" stroke-width="1" stroke-opacity="0"></use></g></g><g><use xlink:href="#gDR1TytP" opacity="1" fill="#000000" fill-opacity="0"></use><g><use xlink:href="#gDR1TytP" opacity="1" fill-opacity="0" stroke="#000000" stroke-width="1" stroke-opacity="0"></use></g></g><g><use xlink:href="#b1L3T5xZ5W" opacity="1" fill="#db2500" fill-opacity="1"></use><g><use xlink:href="#b1L3T5xZ5W" opacity="1" fill-opacity="0" stroke="#000000" stroke-width="1" stroke-opacity="0"></use></g></g><g><use xlink:href="#b4iHOSaMek" opacity="1" fill="#000000" fill-opacity="0"></use><g><use xlink:href="#b4iHOSaMek" opacity="1" fill-opacity="0" stroke="#000000" stroke-width="1" stroke-opacity="0"></use></g></g></g></g></svg>